<?xml version="1.0" encoding="UTF-8"?><svg xmlns="http://www.w3.org/2000/svg" xmlns:xlink="http://www.w3.org/1999/xlink" version="1.1" width="306.6" height="149.02875134992814" viewBox="0 0 100 48.60689867903722" class="css-1j8o68f"><defs id="SvgjsDefs2066"><linearGradient id="SvgjsLinearGradient2069"><stop id="SvgjsStop2070" stop-color="#8f5e25" offset="0"></stop><stop id="SvgjsStop2071" stop-color="#fbf4a1" offset="0.5"></stop><stop id="SvgjsStop2072" stop-color="#8f5e25" offset="1"></stop></linearGradient></defs><g id="SvgjsG2067" featurekey="nameFeature-0" transform="matrix(1.7359605488555443,0,0,1.7359605488555443,0,-20.83152327518455)" fill="url(#SvgjsLinearGradient2069)"><path d="M4.16 37.52 l1.76 0 l1.4 -3.36 l10.44 0.04 l2.56 5.8 l7.36 -0.04 l-12.6 -27.96 l-2.56 0 l-12.52 27.96 l7.8 0 l1.36 -3.2 l7.96 0 l-0.6 -1.36 l-8.24 0 l-1.28 3.16 l-4.76 0 l11.08 -25.2 l0.96 0 l11.12 25.2 l-4.24 0 l-2.56 -5.72 l-12.4 0 z M8.92 30.48 l4.88 -11.64 l8.2 18.64 l1.64 0 l-9.84 -21.92 l-7.2 16.16 l11.6 0 l-4.4 -9.72 l-3.04 7.32 l1.56 0 l1.48 -3.64 l2.2 4.8 l-7.08 0 z M29.205000000000005 13.48 l4.52 0 l6.96 14.48 l0.84 -1.72 l-6.88 -14.24 l-7.8 0 l13.48 28 l0.68 0 l12.84 -26.52 l1.4 0 l-12.88 26.52 l1.64 0 l13.6 -28 l-4.68 0 l-12.24 25.2 z M40.72500000000001 34.44 l10.84 -22.44 l-1.68 0 l-9.16 19.04 l-7.88 -16.28 l-1.64 0 z"></path></g></svg>